<svg version="1.1" id="Layer_1" xmlns="http://www.w3.org/2000/svg" xmlns:xlink="http://www.w3.org/1999/xlink" x="0px" y="0px"
	 width="100%" viewBox="0 0 496 496" enable-background="new 0 0 496 496" xml:space="preserve">
<path fill="#000000" opacity="1.000000" stroke="none" 
	d="
M248.998657,303.357452 
	C243.500793,303.355499 238.499283,303.242401 233.505447,303.389893 
	C230.189224,303.487854 229.221039,302.267456 229.532654,298.928131 
	C231.154617,281.545990 232.527298,264.140808 234.058258,246.749939 
	C235.559814,229.692719 237.162277,212.644379 238.692444,195.589630 
	C240.103989,179.857086 241.499863,164.123047 242.850754,148.385223 
	C243.117355,145.279404 244.721466,144.036469 247.744232,144.049408 
	C257.907074,144.092911 268.071289,144.134857 278.232697,144.002411 
	C281.716003,143.957016 283.135864,145.750763 284.271545,148.726105 
	C294.185608,174.699066 304.211670,200.629318 314.218872,226.566696 
	C315.034119,228.679810 315.955505,230.751953 317.338287,234.067810 
	C318.810425,230.426743 319.818573,228.029770 320.754059,225.604752 
	C330.581573,200.129395 340.469452,174.676804 350.137238,149.140930 
	C351.550659,145.407623 353.578735,143.937317 357.483002,144.006516 
	C366.810089,144.171799 376.142761,144.114304 385.471954,144.021423 
	C389.102875,143.985275 391.215088,144.698914 391.560638,149.140762 
	C392.901184,166.372284 394.690399,183.568710 396.289093,200.780396 
	C397.872467,217.827240 399.441406,234.875443 400.991028,251.925400 
	C402.405823,267.492584 403.751556,283.066132 405.208832,298.629242 
	C405.529907,302.057739 404.335938,303.450043 400.782867,303.389069 
	C391.788666,303.234741 382.784119,303.150391 373.795746,303.428070 
	C369.663544,303.555695 368.163696,301.876740 367.891479,298.046997 
	C366.888977,283.941589 365.775452,269.844055 364.695557,255.744171 
	C363.666687,242.310699 362.639893,228.877014 361.566711,215.447067 
	C361.490479,214.493011 361.039886,213.568863 360.307281,211.083786 
	C352.086029,234.601852 344.337250,256.768402 336.275543,279.830017 
	C323.624176,270.303040 311.248657,270.197083 298.424652,279.858582 
	C290.378418,257.029327 282.623993,235.028152 274.869598,213.026978 
	C272.067535,220.593674 272.142242,228.216690 271.451965,235.704590 
	C269.513153,256.736084 267.936493,277.802490 266.414520,298.869354 
	C266.161316,302.374542 264.803497,303.517517 261.492371,303.380371 
	C257.500854,303.214996 253.496872,303.351349 248.998657,303.357452 
z"/>
<path fill="#000000" opacity="1.000000" stroke="none" 
	d="
M198.211548,220.729263 
	C207.000656,227.385315 214.823181,234.629562 217.177551,245.456482 
	C221.695618,266.233551 215.213806,292.823578 185.381104,302.129669 
	C155.341354,311.500366 127.565796,305.622986 101.899529,288.062134 
	C99.284714,286.273071 98.496582,284.507080 100.393593,281.477051 
	C105.251297,273.717896 109.912811,265.828949 114.414337,257.857239 
	C116.282097,254.549622 117.993378,254.703751 120.628952,256.872406 
	C127.252068,262.322113 134.892410,266.051056 142.779739,269.248047 
	C151.102493,272.621521 159.648865,272.809265 168.185059,270.152069 
	C173.083176,268.627411 176.712326,265.594788 177.637863,260.213715 
	C178.637009,254.404724 176.769730,249.855545 171.808258,246.415894 
	C163.117813,240.391037 153.277557,236.649307 143.913986,231.959305 
	C129.611816,224.795670 117.780846,215.338470 113.403343,198.974167 
	C112.837914,196.860443 112.362991,194.789841 113.338120,192.003845 
	C124.760361,193.320221 136.290878,193.421661 147.478882,187.774002 
	C150.329193,197.913620 159.105835,200.792175 166.848770,204.696136 
	C177.227631,209.929138 188.537354,213.324554 198.211548,220.729263 
z"/>
<path fill="#000000" opacity="1.000000" stroke="none" 
	d="
M169.098633,175.310028 
	C167.402267,175.134094 165.999939,175.526093 164.894012,174.496292 
	C164.302582,172.945068 165.477478,171.993057 166.153290,170.919144 
	C170.856461,163.445587 173.866653,155.454193 173.719574,146.487946 
	C173.675735,143.815399 174.086411,141.876556 177.608917,142.503586 
	C189.159119,144.559631 200.265198,147.755966 210.322281,154.065247 
	C213.149109,155.838654 213.655106,157.654846 212.088303,160.630264 
	C208.288361,167.846466 204.651596,175.152756 201.130554,182.509613 
	C199.662415,185.577103 198.053406,185.718872 195.285950,184.064331 
	C187.345245,179.316879 178.798523,176.185745 169.098633,175.310028 
z"/>
<path fill="#000000" opacity="1.000000" stroke="none" 
	d="
M324.717529,311.927429 
	C315.884857,316.687012 306.865692,313.090454 305.739471,304.722656 
	C304.887817,298.395020 307.562866,293.414307 312.912933,291.366272 
	C318.411072,289.261566 324.310944,291.113068 327.446289,295.927124 
	C330.736237,300.978516 329.871948,306.607666 324.717529,311.927429 
z"/>
<path fill="#000000" opacity="1.000000" stroke="none" 
	d="
M257.793274,349.052979 
	C253.890762,344.256897 255.797668,338.938934 256.251862,333.914124 
	C256.414368,332.116333 258.997040,332.562744 260.313965,333.867920 
	C261.706116,335.247620 262.879822,336.847748 264.087067,338.278290 
	C266.726837,337.907593 267.178619,335.607635 268.496002,334.245758 
	C269.500305,333.207550 270.563782,332.561859 272.008118,332.871735 
	C273.751587,333.245789 273.698975,334.675995 273.722992,336.017059 
	C273.779541,339.171051 273.905945,342.327179 273.834259,345.478607 
	C273.797882,347.078033 273.837097,349.186798 271.416626,349.008850 
	C269.317993,348.854614 269.738708,346.900848 269.612915,345.484131 
	C269.499420,344.205383 269.476776,342.918549 269.375641,340.849731 
	C266.509003,343.824066 263.904572,346.256927 261.054779,341.981476 
	C259.298401,344.516724 261.405701,347.773804 257.793274,349.052979 
z"/>
<path fill="#000000" opacity="1.000000" stroke="none" 
	d="
M282.768860,335.737549 
	C285.921600,331.727753 287.924072,331.730652 289.686554,335.617401 
	C291.573059,339.777527 293.172180,344.068024 294.557495,349.176819 
	C288.998962,346.053772 283.683136,345.564972 277.584473,350.441833 
	C278.721741,344.023193 281.192963,340.242065 282.768860,335.737549 
z"/>
<path fill="#000000" opacity="1.000000" stroke="none" 
	d="
M245.921341,337.824188 
	C246.470703,336.423218 246.711975,335.290588 247.044037,334.185211 
	C247.321350,333.262085 248.099747,332.963165 248.980759,332.949402 
	C250.139053,332.931244 251.011200,333.534943 251.039307,334.661652 
	C251.142776,338.810760 251.154190,342.963745 251.103790,347.114075 
	C251.090683,348.195129 250.389603,348.954407 249.211014,349.034119 
	C247.433685,349.154327 246.828812,347.985596 246.827530,346.530762 
	C246.824677,343.299744 245.394531,341.802734 242.172150,342.628052 
	C240.017197,343.180023 240.457047,345.189453 240.266937,346.777008 
	C240.115585,348.040894 239.722351,349.070129 238.209473,349.070831 
	C236.742004,349.071472 236.071869,348.079468 236.040100,346.834198 
	C235.942688,343.014771 235.938980,339.190979 236.002869,335.370605 
	C236.023178,334.156036 236.541931,333.075073 238.012268,332.958069 
	C239.479538,332.841339 240.191025,333.670776 240.230042,335.021484 
	C240.347214,339.077179 242.664917,339.155151 245.921341,337.824188 
z"/>
<path fill="#000000" opacity="1.000000" stroke="none" 
	d="
M154.715317,339.372925 
	C154.223755,335.940094 155.473068,333.691071 158.463638,332.958832 
	C161.199600,332.288940 164.072449,332.163177 165.610458,335.237274 
	C164.425629,338.729553 161.629486,335.703033 159.730682,337.106506 
	C159.987106,339.471893 162.181534,339.212036 163.629227,339.876160 
	C165.748108,340.848175 167.445953,342.269867 166.934784,344.800720 
	C166.388474,347.505554 164.453812,349.034393 161.693130,349.385193 
	C159.125549,349.711456 156.525726,349.660187 155.036850,347.169189 
	C153.875381,345.225983 155.364395,344.511017 157.053040,344.290253 
	C158.322311,344.124298 159.237610,346.007355 161.106232,344.716278 
	C159.470032,342.393951 155.804916,342.549438 154.715317,339.372925 
z"/>
<path fill="#000000" opacity="1.000000" stroke="none" 
	d="
M170.896698,337.225525 
	C170.779861,331.992371 174.229767,332.736816 177.174332,332.680573 
	C180.158585,332.623627 182.538391,333.637634 183.138763,336.792267 
	C183.784988,340.187988 181.931229,342.309998 178.761246,342.944458 
	C176.413879,343.414246 175.182907,344.336670 175.230896,346.820801 
	C175.255890,348.114197 174.637436,349.084534 173.128922,349.021698 
	C171.653900,348.960205 171.087036,347.907104 171.034424,346.679901 
	C170.906113,343.686707 170.923141,340.687286 170.896698,337.225525 
z"/>
<path fill="#000000" opacity="1.000000" stroke="none" 
	d="
M351.625061,343.937561 
	C350.820892,343.575134 350.170563,343.423615 349.555511,343.182159 
	C347.003815,342.180359 344.574249,341.045258 344.768097,337.665314 
	C344.895966,335.435577 346.156006,333.970337 348.106873,333.104065 
	C350.779083,331.917480 353.407562,332.708527 355.844269,335.309021 
	C354.901031,338.938263 351.642456,335.545380 349.813812,337.394592 
	C350.319794,339.347015 352.215393,339.231598 353.603577,339.820648 
	C355.736298,340.725586 357.450592,342.090820 357.122986,344.638641 
	C356.762482,347.442047 354.933502,349.033478 352.121124,349.334259 
	C349.593658,349.604584 347.057343,349.639404 345.389160,347.232452 
	C345.080139,346.786621 345.006683,345.900055 345.238647,345.414886 
	C345.712128,344.424408 346.729065,344.192841 347.784668,344.353943 
	C349.143036,344.561249 350.599823,346.531189 351.625061,343.937561 
z"/>
<path fill="#000000" opacity="1.000000" stroke="none" 
	d="
M209.820923,332.703308 
	C211.620041,332.849182 213.172775,333.026794 212.931778,334.855255 
	C212.522873,337.957825 209.233231,336.029999 207.773315,337.500916 
	C211.836777,339.523193 211.836777,339.523193 207.044937,344.368073 
	C207.991028,346.381927 209.966934,345.349243 211.423630,345.821869 
	C212.858093,346.287292 213.519211,347.586914 212.525696,348.391357 
	C210.293015,350.199066 207.443481,349.218567 204.849442,349.217041 
	C202.620483,349.215759 202.266724,347.446716 202.195847,345.730621 
	C202.107101,343.582153 202.090683,341.421661 202.208847,339.275452 
	C202.570419,332.707855 202.601303,332.709564 209.820923,332.703308 
z"/>
<path fill="#000000" opacity="1.000000" stroke="none" 
	d="
M190.168091,332.732178 
	C190.789413,332.699280 190.962051,332.662811 191.120087,332.695984 
	C193.363571,333.167023 197.002304,331.293060 197.563461,334.416901 
	C198.213806,338.037231 193.670486,335.874451 192.048874,337.331299 
	C192.959885,339.760803 197.722214,337.333862 196.632004,341.272827 
	C196.055603,343.355377 192.166016,341.342468 191.642487,344.278809 
	C192.659698,346.385071 194.636581,345.336578 196.097641,345.821960 
	C197.476028,346.279907 198.072922,347.165924 197.293869,348.434448 
	C196.214813,350.191406 187.778427,349.552704 187.423111,347.578644 
	C186.605164,343.034302 186.237885,338.378479 187.651413,333.851501 
	C187.815857,333.324829 189.000793,333.116791 190.168091,332.732178 
z"/>
<path fill="#000000" opacity="1.000000" stroke="none" 
	d="
M225.812057,332.664124 
	C228.193558,332.996185 230.730530,333.220825 230.361908,335.837494 
	C229.983948,338.520325 227.532593,337.243591 225.843430,337.159790 
	C223.957611,337.066193 222.695328,337.958130 221.867935,339.591888 
	C221.080643,341.146393 221.498123,342.504517 222.579681,343.706879 
	C223.800293,345.063843 225.240997,345.614044 227.037384,344.794891 
	C228.525131,344.116455 230.484711,342.949677 231.196854,345.280884 
	C231.991348,347.881744 229.483688,348.599060 227.666183,349.159698 
	C222.881866,350.635468 218.165604,347.653046 217.136581,342.696777 
	C216.079865,337.607056 219.455765,333.505341 225.812057,332.664124 
z"/>
<path fill="#000000" opacity="1.000000" stroke="none" 
	d="
M339.567017,345.315399 
	C337.114380,349.576355 332.954163,350.616150 329.238403,348.274200 
	C325.606506,345.985107 324.332947,340.809540 326.420441,336.822235 
	C328.309052,333.214874 333.124908,331.484894 336.683319,333.202240 
	C337.694611,333.690338 338.963165,334.210724 338.751923,335.654755 
	C338.501953,337.363586 337.192139,337.648010 335.748993,337.359894 
	C332.443817,336.699951 329.794434,337.525940 329.884735,341.272095 
	C329.951538,344.041473 331.776855,345.877869 334.997589,344.884796 
	C336.509430,344.418701 337.984467,343.066986 339.567017,345.315399 
z"/>
<path fill="#000000" opacity="1.000000" stroke="none" 
	d="
M309.914917,336.003784 
	C307.241302,336.802490 307.171173,338.631287 307.170197,340.530518 
	C307.169189,342.521973 307.151154,344.515015 307.068237,346.504364 
	C307.006683,347.981201 306.443176,349.127472 304.697296,349.027252 
	C303.197266,348.941162 302.825012,347.835999 302.779114,346.596497 
	C302.705353,344.606567 302.704865,342.613892 302.673431,340.622375 
	C302.647064,338.952332 302.763611,337.196381 300.764526,336.454559 
	C299.547119,336.002777 298.650940,335.375336 299.180511,333.914673 
	C299.603699,332.747314 300.733582,332.778839 301.690948,332.748138 
	C303.846649,332.679016 306.010590,332.633545 308.162354,332.746643 
	C310.034607,332.845032 311.630676,333.354126 309.914917,336.003784 
z"/>
<path fill="#000000" opacity="1.000000" stroke="none" 
	d="
M315.369751,345.363159 
	C316.117462,341.165344 315.430389,337.420715 314.937500,333.751007 
	C316.989105,332.373932 318.815887,332.415527 320.920074,333.617706 
	C320.681519,337.940216 319.523438,342.312622 320.943878,346.720734 
	C321.574310,348.677155 319.970947,349.241486 318.281677,349.277954 
	C315.865021,349.330200 314.302429,348.643402 315.369751,345.363159 
z"/>
</svg>