<svg version="1.1" id="Layer_1" xmlns="http://www.w3.org/2000/svg" xmlns:xlink="http://www.w3.org/1999/xlink" x="0px" y="0px"
	 width="100%" viewBox="0 0 496 496" enable-background="new 0 0 496 496" xml:space="preserve">
<path fill="#000000" opacity="1.000000" stroke="none" 
	d="
M334.289917,347.735870 
	C339.423889,353.375885 346.571411,353.509888 353.044128,355.200745 
	C352.955292,355.666443 352.866455,356.132172 352.777618,356.597870 
	C335.820007,356.597870 318.862427,356.597870 301.541077,356.597870 
	C302.385956,353.928192 304.676788,354.614502 306.151031,354.028168 
	C311.247070,352.001343 313.955780,346.893097 311.255798,342.464417 
	C301.735199,326.848419 291.865204,311.445496 281.609467,295.137604 
	C277.287598,303.032104 277.361542,311.079163 275.436462,319.097595 
	C270.764923,316.235535 271.804871,310.858734 268.809692,307.955811 
	C266.397583,308.598114 265.843018,310.748840 264.753265,312.311737 
	C253.035645,329.116516 242.459473,346.737793 229.525146,362.665771 
	C221.614990,372.406738 212.708664,381.190643 200.650040,385.927490 
	C193.226288,388.843658 185.517715,389.731720 177.611359,389.288116 
	C176.287567,389.213867 174.883606,389.247406 174.300873,387.649780 
	C174.463409,386.126709 175.614212,385.892242 176.806503,385.761261 
	C189.878418,384.324738 199.577148,376.972412 208.144196,367.749634 
	C219.869202,355.127167 229.196915,340.670502 239.210800,326.744415 
	C246.602936,316.464325 253.765335,306.017365 261.262238,295.815369 
	C263.307037,293.032715 263.468323,290.655457 262.299438,287.567688 
	C259.182770,279.334534 256.325439,271.003204 252.703690,260.858521 
	C262.476776,262.887207 271.395752,258.503998 279.902405,263.380707 
	C285.978058,258.691895 292.745270,262.436676 300.115295,261.327301 
	C297.615143,266.929718 294.269226,270.610443 291.310669,274.479706 
	C289.141479,277.316650 289.188568,279.563995 291.108856,282.550262 
	C303.543335,301.887085 315.817139,321.327271 328.130676,340.741791 
	C329.753510,343.300537 331.806824,345.468445 334.289917,347.735870 
z"/>
<path fill="#000000" opacity="1.000000" stroke="none" 
	d="
M256.236633,213.131256 
	C253.437958,215.218506 253.075089,217.492096 254.209473,220.386261 
	C256.333496,225.805267 257.980591,231.418655 261.561340,236.167542 
	C262.319275,237.172775 263.244110,238.273605 262.668915,240.223129 
	C257.542999,240.223129 252.294952,240.332962 247.055664,240.166824 
	C245.075623,240.104019 244.708740,238.045914 243.967041,236.594193 
	C240.777145,230.350662 237.294403,224.289337 232.422562,219.175613 
	C230.722000,217.390625 228.896317,215.651245 225.916458,214.946579 
	C222.965317,220.893677 221.638748,227.414749 219.509399,233.631577 
	C216.947052,241.112579 216.681702,241.351440 208.185837,239.816223 
	C207.159454,236.871552 209.027390,234.402512 209.778427,231.797119 
	C211.160492,227.002625 212.851181,222.297546 214.389008,217.547363 
	C215.951752,212.720291 215.938934,212.716141 211.753906,209.407822 
	C219.061798,208.290573 219.203918,202.268509 220.838440,197.293106 
	C223.850952,188.123169 226.733124,178.910095 229.796249,169.757355 
	C230.437897,167.840042 230.443344,165.375900 232.920639,164.460648 
	C235.362137,165.210541 235.408752,167.508408 236.046432,169.266464 
	C240.132126,180.530472 244.374466,191.749893 247.991043,203.165909 
	C249.469894,207.833984 251.935898,209.111328 256.365356,208.624512 
	C258.668243,208.371414 261.298950,207.143127 263.484528,209.762421 
	C261.771179,212.280716 258.425903,211.105988 256.236633,213.131256 
M229.086182,203.785980 
	C227.563599,207.945648 229.642410,208.136337 232.967117,207.734451 
	C232.812653,204.724380 232.085983,202.603119 230.393158,200.264343 
	C229.860214,201.639786 229.563400,202.405792 229.086182,203.785980 
z"/>
<path fill="#000000" opacity="1.000000" stroke="none" 
	d="
M290.200867,232.284348 
	C296.029968,212.952942 301.353546,193.871552 307.490631,175.055496 
	C315.127014,151.642807 327.974945,132.094955 351.185455,121.227081 
	C358.946075,117.593307 367.231720,115.765640 375.841766,115.725136 
	C377.413330,115.717743 379.187744,115.220947 380.675171,116.954948 
	C380.205505,118.937965 378.505798,119.028748 376.908173,119.215988 
	C361.208801,121.056007 349.279846,129.267715 339.895081,141.488983 
	C330.660156,153.515076 324.739441,167.256454 319.867432,181.508926 
	C314.054047,198.515350 308.157013,215.493256 302.262543,232.471848 
	C299.088989,241.613022 298.822052,241.732224 288.939209,239.757950 
	C287.861969,237.194016 289.714813,235.027649 290.200867,232.284348 
z"/>
<path fill="#000000" opacity="1.000000" stroke="none" 
	d="
M190.207123,276.832001 
	C190.975967,279.197418 191.661545,281.187256 192.660568,284.086823 
	C194.735550,277.842407 196.499298,272.503448 198.284149,267.171509 
	C200.418549,260.795319 202.726624,259.801025 209.507477,262.306458 
	C209.603287,262.613647 209.841888,262.970184 209.760773,263.224945 
	C203.813034,281.899658 199.450333,301.164215 190.761398,318.841187 
	C183.816055,332.970947 173.515045,344.124817 158.232529,349.655579 
	C150.898148,352.309937 143.322647,352.854187 135.641006,351.236359 
	C134.636963,351.024902 133.679611,350.780731 133.360947,349.494049 
	C133.973236,347.216003 135.914490,347.857422 137.403214,347.972870 
	C148.336166,348.820679 157.212860,344.412628 164.852417,337.123749 
	C173.775818,328.609955 180.242264,318.416504 184.914627,307.015656 
	C186.111618,304.094940 185.529846,301.521423 184.563797,298.810455 
	C180.270569,286.762878 176.004089,274.705750 171.637253,262.396454 
	C175.818695,260.272064 179.786560,261.086823 183.653717,261.405182 
	C185.637787,261.568512 186.075409,263.390991 186.567398,265.027679 
	C187.715912,268.848358 188.933960,272.648163 190.207123,276.832001 
z"/>
<path fill="#000000" opacity="1.000000" stroke="none" 
	d="
M158.265488,224.624374 
	C153.674332,211.702530 148.991028,199.224152 144.861786,186.565033 
	C141.730927,176.966690 135.712830,171.365326 125.616623,170.282288 
	C124.792076,170.193848 123.936150,170.092682 123.452393,168.224564 
	C139.291595,168.224564 154.907532,168.224564 170.840515,168.224564 
	C170.407471,169.141327 170.333038,169.621307 170.128754,169.685074 
	C160.124649,172.806259 158.679108,175.491074 161.860870,185.808060 
	C166.813705,201.867874 171.892242,217.888901 176.862671,233.943344 
	C177.436127,235.795593 178.608704,237.598099 177.782150,240.002350 
	C174.147125,240.651581 170.389740,240.729034 166.597885,240.532104 
	C164.124680,240.403671 163.261398,238.777649 162.577515,236.762100 
	C161.240143,232.820709 159.805756,228.912247 158.265488,224.624374 
z"/>
<path fill="#000000" opacity="1.000000" stroke="none" 
	d="
M363.149780,184.144348 
	C349.923340,192.723267 341.989014,205.604706 332.989807,217.514359 
	C329.078766,222.690231 324.699982,227.654755 321.674225,233.324036 
	C317.194946,241.716797 310.332794,240.971863 302.675171,239.948624 
	C302.851562,239.104584 302.801392,238.369308 303.131866,237.904907 
	C313.158325,223.815933 322.330261,209.104675 333.782104,196.053741 
	C344.427856,183.921478 357.310303,176.127777 373.746735,175.136978 
	C376.425659,174.975494 379.333435,174.215546 382.302460,177.360474 
	C375.516724,179.355011 368.701721,179.675797 363.149780,184.144348 
z"/>
<path fill="#000000" opacity="1.000000" stroke="none" 
	d="
M169.447845,246.392517 
	C172.288879,246.008667 172.288879,246.008667 173.632751,249.222153 
	C175.397156,248.780853 174.090790,245.758728 176.812347,245.853226 
	C177.309784,249.368484 176.135941,252.299179 174.249084,254.859451 
	C171.390457,255.113876 172.208618,252.404617 170.892471,251.540253 
	C169.616501,252.509811 169.976746,254.900253 167.387985,255.010910 
	C164.873154,252.550903 165.180573,249.217300 164.614838,246.040756 
	C167.510864,245.540421 166.703812,248.221985 168.211945,248.772247 
	C168.568268,248.052750 168.916946,247.348679 169.447845,246.392517 
z"/>
<path fill="#000000" opacity="1.000000" stroke="none" 
	d="
M282.713226,251.731903 
	C283.099792,252.918915 284.278290,253.403580 283.975250,254.714783 
	C281.789001,256.713776 279.410858,251.294220 277.313385,255.491455 
	C275.593536,251.830795 275.363220,248.739334 277.150208,245.977570 
	C278.164124,244.410492 280.189301,244.988373 281.696533,245.793533 
	C284.354797,247.213577 283.252991,249.394135 282.713226,251.731903 
z"/>
<path fill="#000000" opacity="1.000000" stroke="none" 
	d="
M193.710907,247.703018 
	C194.794434,245.846909 196.033447,244.733582 196.759064,247.302246 
	C197.455521,249.767670 197.401047,252.437683 196.222549,254.749268 
	C193.744934,254.634171 194.308960,251.619125 192.136459,251.696381 
	C190.278397,251.636795 190.800873,254.267517 188.846848,254.556763 
	C187.241058,251.681229 187.509338,248.822098 188.629791,245.910385 
	C190.889267,245.721115 190.760330,250.097244 193.710907,247.703018 
z"/>
<path fill="#000000" opacity="1.000000" stroke="none" 
	d="
M222.257187,253.567520 
	C222.290604,251.662933 223.629288,252.420944 224.566452,252.033585 
	C223.768402,251.034866 222.770706,250.177643 222.288116,249.091522 
	C221.546478,247.422379 222.544998,246.282227 224.019775,245.527145 
	C225.533691,244.752060 227.747742,244.908813 227.894348,246.215500 
	C228.181458,248.774536 230.235275,251.582092 228.366318,253.936310 
	C226.763275,255.955582 224.347870,255.996078 222.257187,253.567520 
z"/>
<path fill="#000000" opacity="1.000000" stroke="none" 
	d="
M247.560242,249.549225 
	C245.933578,252.172272 242.353592,251.654495 241.590179,255.336075 
	C239.057953,252.003250 239.651886,249.136627 240.474915,246.412781 
	C240.903793,244.993332 242.506989,244.872253 243.858368,245.086945 
	C246.169724,245.454147 247.957321,246.400253 247.560242,249.549225 
z"/>
<path fill="#000000" opacity="1.000000" stroke="none" 
	d="
M317.081299,247.710419 
	C315.052399,250.272018 317.769287,252.303177 317.343506,254.947128 
	C315.208435,254.065216 313.096313,253.248337 310.656555,255.804581 
	C310.904633,251.856064 312.796143,248.877167 309.932129,245.581757 
	C312.785492,245.742249 314.812561,247.206253 316.859711,245.822586 
	C317.171478,245.611847 317.423279,246.781845 317.081299,247.710419 
z"/>
<path fill="#000000" opacity="1.000000" stroke="none" 
	d="
M258.695618,251.859512 
	C258.768005,244.833038 258.927460,244.669556 264.340820,245.595016 
	C264.347443,248.493851 262.189819,251.408890 264.669006,254.625229 
	C261.906311,255.367981 259.391296,256.489380 258.695618,251.859512 
z"/>
<path fill="#000000" opacity="1.000000" stroke="none" 
	d="
M210.963440,252.574707 
	C210.206848,255.200516 208.958939,255.618317 208.351288,253.169083 
	C207.752136,250.754135 207.294281,247.992432 209.443283,245.662750 
	C211.958008,247.533173 210.798859,250.013138 210.963440,252.574707 
z"/>
</svg>